# Cyber Bank Vault Door Low-Poly Model
o MainVaultDoor
v 2.2000 -0.2000 0.0000
v 2.2000 0.2000 0.0000
v 2.0325 -0.2000 0.8419
v 2.0325 0.2000 0.8419
v 1.5556 -0.2000 1.5556
v 1.5556 0.2000 1.5556
v 0.8419 -0.2000 2.0325
v 0.8419 0.2000 2.0325
v 0.0000 -0.2000 2.2000
v 0.0000 0.2000 2.2000
v -0.8419 -0.2000 2.0325
v -0.8419 0.2000 2.0325
v -1.5556 -0.2000 1.5556
v -1.5556 0.2000 1.5556
v -2.0325 -0.2000 0.8419
v -2.0325 0.2000 0.8419
v -2.2000 -0.2000 0.0000
v -2.2000 0.2000 0.0000
v -2.0325 -0.2000 -0.8419
v -2.0325 0.2000 -0.8419
v -1.5556 -0.2000 -1.5556
v -1.5556 0.2000 -1.5556
v -0.8419 -0.2000 -2.0325
v -0.8419 0.2000 -2.0325
v -0.0000 -0.2000 -2.2000
v -0.0000 0.2000 -2.2000
v 0.8419 -0.2000 -2.0325
v 0.8419 0.2000 -2.0325
v 1.5556 -0.2000 -1.5556
v 1.5556 0.2000 -1.5556
v 2.0325 -0.2000 -0.8419
v 2.0325 0.2000 -0.8419
f 1 2 4 3
f 3 4 6 5
f 5 6 8 7
f 7 8 10 9
f 9 10 12 11
f 11 12 14 13
f 13 14 16 15
f 15 16 18 17
f 17 18 20 19
f 19 20 22 21
f 21 22 24 23
f 23 24 26 25
f 25 26 28 27
f 27 28 30 29
f 29 30 32 31
f 31 32 2 1
o LockWheelHub
v 0.5000 -0.1000 0.2500
v 0.5000 0.1000 0.2500
v 0.4330 -0.1000 0.5000
v 0.4330 0.1000 0.5000
v 0.2500 -0.1000 0.6830
v 0.2500 0.1000 0.6830
v 0.0000 -0.1000 0.7500
v 0.0000 0.1000 0.7500
v -0.2500 -0.1000 0.6830
v -0.2500 0.1000 0.6830
v -0.4330 -0.1000 0.5000
v -0.4330 0.1000 0.5000
v -0.5000 -0.1000 0.2500
v -0.5000 0.1000 0.2500
v -0.4330 -0.1000 0.0000
v -0.4330 0.1000 0.0000
v -0.2500 -0.1000 -0.1830
v -0.2500 0.1000 -0.1830
v -0.0000 -0.1000 -0.2500
v -0.0000 0.1000 -0.2500
v 0.2500 -0.1000 -0.1830
v 0.2500 0.1000 -0.1830
v 0.4330 -0.1000 -0.0000
v 0.4330 0.1000 -0.0000
f 33 34 36 35
f 35 36 38 37
f 37 38 40 39
f 39 40 42 41
f 41 42 44 43
f 43 44 46 45
f 45 46 48 47
f 47 48 50 49
f 49 50 52 51
f 51 52 54 53
f 53 54 56 55
f 55 56 34 33
