# Low Poly Bank Office Desk Model
o DeskTop
v -1.0000 0.7500 -0.5000
v 1.0000 0.7500 -0.5000
v 1.0000 0.8500 -0.5000
v -1.0000 0.8500 -0.5000
v -1.0000 0.7500 0.5000
v 1.0000 0.7500 0.5000
v 1.0000 0.8500 0.5000
v -1.0000 0.8500 0.5000
f 1 4 3 2
f 5 6 7 8
f 1 2 6 5
f 3 4 8 7
f 1 5 8 4
f 2 3 7 6
o LegLeft
v -0.9500 0.0000 -0.4500
v -0.8500 0.0000 -0.4500
v -0.8500 0.8000 -0.4500
v -0.9500 0.8000 -0.4500
v -0.9500 0.0000 0.4500
v -0.8500 0.0000 0.4500
v -0.8500 0.8000 0.4500
v -0.9500 0.8000 0.4500
f 9 12 11 10
f 13 14 15 16
f 9 10 14 13
f 11 12 16 15
f 9 13 16 12
f 10 11 15 14
o LegRight
v 0.8500 0.0000 -0.4500
v 0.9500 0.0000 -0.4500
v 0.9500 0.8000 -0.4500
v 0.8500 0.8000 -0.4500
v 0.8500 0.0000 0.4500
v 0.9500 0.0000 0.4500
v 0.9500 0.8000 0.4500
v 0.8500 0.8000 0.4500
f 17 20 19 18
f 21 22 23 24
f 17 18 22 21
f 19 20 24 23
f 17 21 24 20
f 18 19 23 22
