# Hacker Player Low-Poly Model
o Head
v -0.2500 1.3500 -0.2500
v 0.2500 1.3500 -0.2500
v 0.2500 1.8500 -0.2500
v -0.2500 1.8500 -0.2500
v -0.2500 1.3500 0.2500
v 0.2500 1.3500 0.2500
v 0.2500 1.8500 0.2500
v -0.2500 1.8500 0.2500
f 1 4 3 2
f 5 6 7 8
f 1 2 6 5
f 3 4 8 7
f 1 5 8 4
f 2 3 7 6
o Torso
v -0.3500 0.4500 -0.2000
v 0.3500 0.4500 -0.2000
v 0.3500 1.3500 -0.2000
v -0.3500 1.3500 -0.2000
v -0.3500 0.4500 0.2000
v 0.3500 0.4500 0.2000
v 0.3500 1.3500 0.2000
v -0.3500 1.3500 0.2000
f 9 12 11 10
f 13 14 15 16
f 9 10 14 13
f 11 12 16 15
f 9 13 16 12
f 10 11 15 14
o LegLeft
v -0.3250 0.0000 -0.1250
v -0.0750 0.0000 -0.1250
v -0.0750 0.5000 -0.1250
v -0.3250 0.5000 -0.1250
v -0.3250 0.0000 0.1250
v -0.0750 0.0000 0.1250
v -0.0750 0.5000 0.1250
v -0.3250 0.5000 0.1250
f 17 20 19 18
f 21 22 23 24
f 17 18 22 21
f 19 20 24 23
f 17 21 24 20
f 18 19 23 22
o LegRight
v 0.0750 0.0000 -0.1250
v 0.3250 0.0000 -0.1250
v 0.3250 0.5000 -0.1250
v 0.0750 0.5000 -0.1250
v 0.0750 0.0000 0.1250
v 0.3250 0.0000 0.1250
v 0.3250 0.5000 0.1250
v 0.0750 0.5000 0.1250
f 25 28 27 26
f 29 30 31 32
f 25 26 30 29
f 27 28 32 31
f 25 29 32 28
f 26 27 31 30
