# Low Poly Laser Emitter Post Model
o EmitterPostLeft
v -1.0500 0.0000 0.0000
v -1.0500 2.0000 0.0000
v -1.0701 0.0000 0.0750
v -1.0701 2.0000 0.0750
v -1.1250 0.0000 0.1299
v -1.1250 2.0000 0.1299
v -1.2000 0.0000 0.1500
v -1.2000 2.0000 0.1500
v -1.2750 0.0000 0.1299
v -1.2750 2.0000 0.1299
v -1.3299 0.0000 0.0750
v -1.3299 2.0000 0.0750
v -1.3500 0.0000 0.0000
v -1.3500 2.0000 0.0000
v -1.3299 0.0000 -0.0750
v -1.3299 2.0000 -0.0750
v -1.2750 0.0000 -0.1299
v -1.2750 2.0000 -0.1299
v -1.2000 0.0000 -0.1500
v -1.2000 2.0000 -0.1500
v -1.1250 0.0000 -0.1299
v -1.1250 2.0000 -0.1299
v -1.0701 0.0000 -0.0750
v -1.0701 2.0000 -0.0750
f 1 2 4 3
f 3 4 6 5
f 5 6 8 7
f 7 8 10 9
f 9 10 12 11
f 11 12 14 13
f 13 14 16 15
f 15 16 18 17
f 17 18 20 19
f 19 20 22 21
f 21 22 24 23
f 23 24 2 1
o EmitterPostRight
v 1.3500 0.0000 0.0000
v 1.3500 2.0000 0.0000
v 1.3299 0.0000 0.0750
v 1.3299 2.0000 0.0750
v 1.2750 0.0000 0.1299
v 1.2750 2.0000 0.1299
v 1.2000 0.0000 0.1500
v 1.2000 2.0000 0.1500
v 1.1250 0.0000 0.1299
v 1.1250 2.0000 0.1299
v 1.0701 0.0000 0.0750
v 1.0701 2.0000 0.0750
v 1.0500 0.0000 0.0000
v 1.0500 2.0000 0.0000
v 1.0701 0.0000 -0.0750
v 1.0701 2.0000 -0.0750
v 1.1250 0.0000 -0.1299
v 1.1250 2.0000 -0.1299
v 1.2000 0.0000 -0.1500
v 1.2000 2.0000 -0.1500
v 1.2750 0.0000 -0.1299
v 1.2750 2.0000 -0.1299
v 1.3299 0.0000 -0.0750
v 1.3299 2.0000 -0.0750
f 25 26 28 27
f 27 28 30 29
f 29 30 32 31
f 31 32 34 33
f 33 34 36 35
f 35 36 38 37
f 37 38 40 39
f 39 40 42 41
f 41 42 44 43
f 43 44 46 45
f 45 46 48 47
f 47 48 26 25
