# Low Poly Money Stack & Gold Bar Model
o CashBundle1
v -0.4000 0.0000 -0.3000
v 0.0000 0.0000 -0.3000
v 0.0000 0.2000 -0.3000
v -0.4000 0.2000 -0.3000
v -0.4000 0.0000 0.3000
v 0.0000 0.0000 0.3000
v 0.0000 0.2000 0.3000
v -0.4000 0.2000 0.3000
f 1 4 3 2
f 5 6 7 8
f 1 2 6 5
f 3 4 8 7
f 1 5 8 4
f 2 3 7 6
o CashBundle2
v 0.0000 0.0000 -0.3000
v 0.4000 0.0000 -0.3000
v 0.4000 0.2000 -0.3000
v 0.0000 0.2000 -0.3000
v 0.0000 0.0000 0.3000
v 0.4000 0.0000 0.3000
v 0.4000 0.2000 0.3000
v 0.0000 0.2000 0.3000
f 9 12 11 10
f 13 14 15 16
f 9 10 14 13
f 11 12 16 15
f 9 13 16 12
f 10 11 15 14
o GoldBarTop
v -0.1750 0.2250 -0.2500
v 0.1750 0.2250 -0.2500
v 0.1750 0.3750 -0.2500
v -0.1750 0.3750 -0.2500
v -0.1750 0.2250 0.2500
v 0.1750 0.2250 0.2500
v 0.1750 0.3750 0.2500
v -0.1750 0.3750 0.2500
f 17 20 19 18
f 21 22 23 24
f 17 18 22 21
f 19 20 24 23
f 17 21 24 20
f 18 19 23 22
