# Low Poly Security Camera Model
o WallMount
v -0.1000 -0.2000 -0.3000
v 0.1000 -0.2000 -0.3000
v 0.1000 0.2000 -0.3000
v -0.1000 0.2000 -0.3000
v -0.1000 -0.2000 -0.1000
v 0.1000 -0.2000 -0.1000
v 0.1000 0.2000 -0.1000
v -0.1000 0.2000 -0.1000
f 1 4 3 2
f 5 6 7 8
f 1 2 6 5
f 3 4 8 7
f 1 5 8 4
f 2 3 7 6
o CameraBody
v 0.2500 -0.3000 0.2000
v 0.2500 0.3000 0.2000
v 0.2165 -0.3000 0.3250
v 0.2165 0.3000 0.3250
v 0.1250 -0.3000 0.4165
v 0.1250 0.3000 0.4165
v 0.0000 -0.3000 0.4500
v 0.0000 0.3000 0.4500
v -0.1250 -0.3000 0.4165
v -0.1250 0.3000 0.4165
v -0.2165 -0.3000 0.3250
v -0.2165 0.3000 0.3250
v -0.2500 -0.3000 0.2000
v -0.2500 0.3000 0.2000
v -0.2165 -0.3000 0.0750
v -0.2165 0.3000 0.0750
v -0.1250 -0.3000 -0.0165
v -0.1250 0.3000 -0.0165
v -0.0000 -0.3000 -0.0500
v -0.0000 0.3000 -0.0500
v 0.1250 -0.3000 -0.0165
v 0.1250 0.3000 -0.0165
v 0.2165 -0.3000 0.0750
v 0.2165 0.3000 0.0750
f 9 10 12 11
f 11 12 14 13
f 13 14 16 15
f 15 16 18 17
f 17 18 20 19
f 19 20 22 21
f 21 22 24 23
f 23 24 26 25
f 25 26 28 27
f 27 28 30 29
f 29 30 32 31
f 31 32 10 9
