# Hacker Server Terminal Model
o ServerTower
v -0.4000 0.0000 -0.4000
v 0.4000 0.0000 -0.4000
v 0.4000 2.0000 -0.4000
v -0.4000 2.0000 -0.4000
v -0.4000 0.0000 0.4000
v 0.4000 0.0000 0.4000
v 0.4000 2.0000 0.4000
v -0.4000 2.0000 0.4000
f 1 4 3 2
f 5 6 7 8
f 1 2 6 5
f 3 4 8 7
f 1 5 8 4
f 2 3 7 6
o Screen
v -0.3000 1.1500 0.4000
v 0.3000 1.1500 0.4000
v 0.3000 1.6500 0.4000
v -0.3000 1.6500 0.4000
v -0.3000 1.1500 0.5000
v 0.3000 1.1500 0.5000
v 0.3000 1.6500 0.5000
v -0.3000 1.6500 0.5000
f 9 12 11 10
f 13 14 15 16
f 9 10 14 13
f 11 12 16 15
f 9 13 16 12
f 10 11 15 14
